<svg width="248" height="26" viewBox="0 0 248 26" fill="none" xmlns="http://www.w3.org/2000/svg">
<path d="M10.352 3.1C12.336 3.1 14.0533 3.43067 15.504 4.092C16.976 4.75333 18.1067 5.692 18.896 6.908C19.6853 8.124 20.08 9.564 20.08 11.228C20.08 12.8707 19.6853 14.3107 18.896 15.548C18.1067 16.764 16.976 17.7027 15.504 18.364C14.0533 19.004 12.336 19.324 10.352 19.324H5.84V25.5H0.656V3.1H10.352ZM10.064 15.1C11.6213 15.1 12.8053 14.7693 13.616 14.108C14.4267 13.4253 14.832 12.4653 14.832 11.228C14.832 9.96933 14.4267 9.00933 13.616 8.348C12.8053 7.66533 11.6213 7.324 10.064 7.324H5.84V15.1H10.064ZM31.5898 25.756C29.7764 25.756 28.1444 25.3827 26.6938 24.636C25.2644 23.868 24.1444 22.812 23.3338 21.468C22.5231 20.124 22.1178 18.5987 22.1178 16.892C22.1178 15.1853 22.5231 13.66 23.3338 12.316C24.1444 10.972 25.2644 9.92667 26.6938 9.18C28.1444 8.412 29.7764 8.028 31.5898 8.028C33.4031 8.028 35.0244 8.412 36.4538 9.18C37.8831 9.92667 39.0031 10.972 39.8138 12.316C40.6244 13.66 41.0298 15.1853 41.0298 16.892C41.0298 18.5987 40.6244 20.124 39.8138 21.468C39.0031 22.812 37.8831 23.868 36.4538 24.636C35.0244 25.3827 33.4031 25.756 31.5898 25.756ZM31.5898 21.66C32.8698 21.66 33.9151 21.2333 34.7258 20.38C35.5578 19.5053 35.9738 18.3427 35.9738 16.892C35.9738 15.4413 35.5578 14.2893 34.7258 13.436C33.9151 12.5613 32.8698 12.124 31.5898 12.124C30.3098 12.124 29.2538 12.5613 28.4218 13.436C27.5898 14.2893 27.1738 15.4413 27.1738 16.892C27.1738 18.3427 27.5898 19.5053 28.4218 20.38C29.2538 21.2333 30.3098 21.66 31.5898 21.66ZM49.1345 10.556C49.7318 9.724 50.5318 9.09467 51.5345 8.668C52.5585 8.24133 53.7318 8.028 55.0545 8.028V12.636C54.4998 12.5933 54.1265 12.572 53.9345 12.572C52.5052 12.572 51.3852 12.9773 50.5745 13.788C49.7638 14.5773 49.3585 15.772 49.3585 17.372V25.5H44.3665V8.284H49.1345V10.556ZM68.3908 24.668C67.9001 25.0307 67.2921 25.308 66.5668 25.5C65.8628 25.6707 65.1268 25.756 64.3588 25.756C62.2894 25.756 60.7001 25.2333 59.5908 24.188C58.4814 23.1427 57.9268 21.6067 57.9268 19.58V4.476H62.9188V8.668H67.1748V12.508H62.9188V19.516C62.9188 20.2413 63.1001 20.8067 63.4628 21.212C63.8254 21.596 64.3481 21.788 65.0308 21.788C65.7988 21.788 66.4814 21.5747 67.0788 21.148L68.3908 24.668ZM76.0743 8.668H80.4903V12.508H76.2023V25.5H71.2103V7.9C71.2103 5.93733 71.7863 4.38 72.9383 3.228C74.1116 2.076 75.7543 1.5 77.8663 1.5C78.6129 1.5 79.3169 1.58533 79.9783 1.756C80.6609 1.90533 81.2263 2.12933 81.6743 2.428L80.3623 6.044C79.7863 5.63867 79.1143 5.436 78.3463 5.436C76.8316 5.436 76.0743 6.268 76.0743 7.932V8.668ZM90.9648 25.756C89.1514 25.756 87.5194 25.3827 86.0688 24.636C84.6394 23.868 83.5194 22.812 82.7088 21.468C81.8981 20.124 81.4928 18.5987 81.4928 16.892C81.4928 15.1853 81.8981 13.66 82.7088 12.316C83.5194 10.972 84.6394 9.92667 86.0688 9.18C87.5194 8.412 89.1514 8.028 90.9648 8.028C92.7781 8.028 94.3994 8.412 95.8288 9.18C97.2581 9.92667 98.3781 10.972 99.1888 12.316C99.9994 13.66 100.405 15.1853 100.405 16.892C100.405 18.5987 99.9994 20.124 99.1888 21.468C98.3781 22.812 97.2581 23.868 95.8288 24.636C94.3994 25.3827 92.7781 25.756 90.9648 25.756ZM90.9648 21.66C92.2448 21.66 93.2901 21.2333 94.1008 20.38C94.9328 19.5053 95.3488 18.3427 95.3488 16.892C95.3488 15.4413 94.9328 14.2893 94.1008 13.436C93.2901 12.5613 92.2448 12.124 90.9648 12.124C89.6848 12.124 88.6288 12.5613 87.7968 13.436C86.9648 14.2893 86.5488 15.4413 86.5488 16.892C86.5488 18.3427 86.9648 19.5053 87.7968 20.38C88.6288 21.2333 89.6848 21.66 90.9648 21.66ZM109.918 25.756C107.976 25.756 106.462 25.244 105.374 24.22C104.286 23.1747 103.742 21.7027 103.742 19.804V1.756H108.734V19.516C108.734 20.2413 108.915 20.8067 109.278 21.212C109.662 21.596 110.195 21.788 110.878 21.788C111.134 21.788 111.39 21.756 111.646 21.692C111.923 21.628 112.136 21.5533 112.286 21.468L112.51 25.34C111.678 25.6173 110.814 25.756 109.918 25.756ZM114.96 8.284H119.952V25.5H114.96V8.284ZM117.456 5.884C116.539 5.884 115.792 5.61733 115.216 5.084C114.64 4.55067 114.352 3.88933 114.352 3.1C114.352 2.31067 114.64 1.64933 115.216 1.116C115.792 0.582665 116.539 0.315998 117.456 0.315998C118.374 0.315998 119.12 0.571999 119.696 1.084C120.272 1.596 120.56 2.236 120.56 3.004C120.56 3.836 120.272 4.52933 119.696 5.084C119.12 5.61733 118.374 5.884 117.456 5.884ZM132.777 25.756C130.964 25.756 129.332 25.3827 127.881 24.636C126.452 23.868 125.332 22.812 124.521 21.468C123.711 20.124 123.305 18.5987 123.305 16.892C123.305 15.1853 123.711 13.66 124.521 12.316C125.332 10.972 126.452 9.92667 127.881 9.18C129.332 8.412 130.964 8.028 132.777 8.028C134.591 8.028 136.212 8.412 137.641 9.18C139.071 9.92667 140.191 10.972 141.001 12.316C141.812 13.66 142.217 15.1853 142.217 16.892C142.217 18.5987 141.812 20.124 141.001 21.468C140.191 22.812 139.071 23.868 137.641 24.636C136.212 25.3827 134.591 25.756 132.777 25.756ZM132.777 21.66C134.057 21.66 135.103 21.2333 135.913 20.38C136.745 19.5053 137.161 18.3427 137.161 16.892C137.161 15.4413 136.745 14.2893 135.913 13.436C135.103 12.5613 134.057 12.124 132.777 12.124C131.497 12.124 130.441 12.5613 129.609 13.436C128.777 14.2893 128.361 15.4413 128.361 16.892C128.361 18.3427 128.777 19.5053 129.609 20.38C130.441 21.2333 131.497 21.66 132.777 21.66ZM147.223 25.756C146.349 25.756 145.613 25.4573 145.015 24.86C144.418 24.2627 144.119 23.516 144.119 22.62C144.119 21.7027 144.418 20.9667 145.015 20.412C145.613 19.836 146.349 19.548 147.223 19.548C148.098 19.548 148.834 19.836 149.431 20.412C150.029 20.9667 150.327 21.7027 150.327 22.62C150.327 23.516 150.029 24.2627 149.431 24.86C148.834 25.4573 148.098 25.756 147.223 25.756ZM161.735 25.884C159.964 25.884 158.247 25.6493 156.583 25.18C154.94 24.6893 153.617 24.06 152.615 23.292L154.375 19.388C155.335 20.092 156.476 20.6573 157.799 21.084C159.121 21.5107 160.444 21.724 161.767 21.724C163.239 21.724 164.327 21.5107 165.031 21.084C165.735 20.636 166.087 20.0493 166.087 19.324C166.087 18.7907 165.873 18.3533 165.447 18.012C165.041 17.6493 164.508 17.3613 163.847 17.148C163.207 16.9347 162.332 16.7 161.223 16.444C159.516 16.0387 158.119 15.6333 157.031 15.228C155.943 14.8227 155.004 14.172 154.215 13.276C153.447 12.38 153.063 11.1853 153.063 9.692C153.063 8.39067 153.415 7.21733 154.119 6.172C154.823 5.10533 155.879 4.26267 157.287 3.644C158.716 3.02533 160.455 2.716 162.503 2.716C163.932 2.716 165.329 2.88667 166.695 3.228C168.06 3.56933 169.255 4.06 170.279 4.7L168.679 8.636C166.609 7.46267 164.54 6.876 162.471 6.876C161.02 6.876 159.943 7.11067 159.239 7.58C158.556 8.04933 158.215 8.668 158.215 9.436C158.215 10.204 158.609 10.78 159.399 11.164C160.209 11.5267 161.436 11.8893 163.079 12.252C164.785 12.6573 166.183 13.0627 167.271 13.468C168.359 13.8733 169.287 14.5133 170.055 15.388C170.844 16.2627 171.239 17.4467 171.239 18.94C171.239 20.22 170.876 21.3933 170.151 22.46C169.447 23.5053 168.38 24.3373 166.951 24.956C165.521 25.5747 163.783 25.884 161.735 25.884ZM185.629 25.884C183.304 25.884 181.202 25.3827 179.325 24.38C177.469 23.3773 176.008 22.0013 174.941 20.252C173.896 18.4813 173.373 16.4973 173.373 14.3C173.373 12.1027 173.896 10.1293 174.941 8.38C176.008 6.60933 177.469 5.22267 179.325 4.22C181.202 3.21733 183.304 2.716 185.629 2.716C187.954 2.716 190.045 3.21733 191.901 4.22C193.757 5.22267 195.218 6.60933 196.285 8.38C197.352 10.1293 197.885 12.1027 197.885 14.3C197.885 16.4973 197.352 18.4813 196.285 20.252C195.218 22.0013 193.757 23.3773 191.901 24.38C190.045 25.3827 187.954 25.884 185.629 25.884ZM185.629 21.468C186.952 21.468 188.146 21.1693 189.213 20.572C190.28 19.9533 191.112 19.1 191.709 18.012C192.328 16.924 192.637 15.6867 192.637 14.3C192.637 12.9133 192.328 11.676 191.709 10.588C191.112 9.5 190.28 8.65733 189.213 8.06C188.146 7.44133 186.952 7.132 185.629 7.132C184.306 7.132 183.112 7.44133 182.045 8.06C180.978 8.65733 180.136 9.5 179.517 10.588C178.92 11.676 178.621 12.9133 178.621 14.3C178.621 15.6867 178.92 16.924 179.517 18.012C180.136 19.1 180.978 19.9533 182.045 20.572C183.112 21.1693 184.306 21.468 185.629 21.468ZM213.653 2.716C216.32 2.716 218.4 3.55867 219.893 5.244C221.386 6.908 222.133 9.28667 222.133 12.38V25.5H216.949V12.54C216.949 10.748 216.522 9.404 215.669 8.508C214.837 7.59067 213.674 7.132 212.181 7.132C210.602 7.132 209.333 7.62267 208.373 8.604C207.434 9.564 206.965 10.9933 206.965 12.892V25.5H201.781V3.1H206.805V5.82C207.573 4.796 208.533 4.028 209.685 3.516C210.837 2.98267 212.16 2.716 213.653 2.716ZM247.282 3.1V25.5H242.258V22.78C240.722 24.8493 238.46 25.884 235.474 25.884C232.828 25.884 230.759 25.052 229.266 23.388C227.794 21.7027 227.058 19.3133 227.058 16.22V3.1H232.242V16.06C232.242 17.852 232.658 19.2067 233.49 20.124C234.343 21.02 235.495 21.468 236.946 21.468C238.503 21.468 239.751 20.988 240.69 20.028C241.628 19.0467 242.098 17.6067 242.098 15.708V3.1H247.282Z" fill="white"/>
</svg>
